PathFileType	4	(X/Y/Z)	6_coords_data.trc
DataRate	CameraRate	NumFrames	NumMarkers	Units	OrigDataRate	OrigDataStartFrame	OrigNumFrames
30.0	30.0	6	21	m	30.0	68	77
Frame#	Time	THUMB_TIP	THUMB_IP	THUMB_MCP	THUMB_CMC	INDEX_TIP	INDEX_DIP	INDEX_PIP	INDEX_MCP	MIDDLE_TIP	MIDDLE_DIP	MIDDLE_PIP	MIDDLE_MCP	RING_TIP	RING_DIP	RING_PIP	RING_MCP	PINKY_TIP	PINKY_DIP	PINKY_PIP	PINKY_MCP	WRIST
X1	Y1	Z1	X2	Y2	Z2	X3	Y3	Z3	X4	Y4	Z4	X5	Y5	Z5	X6	Y6	Z6	X7	Y7	Z7	X8	Y8	Z8	X9	Y9	Z9	X10	Y10	Z10	X11	Y11	Z11	X12	Y12	Z12	X13	Y13	Z13	X14	Y14	Z14	X15	Y15	Z15	X16	Y16	Z16	X17	Y17	Z17	X18	Y18	Z18	X19	Y19	Z19	X20	Y20	Z20	X21	Y21	Z21
67	2.2333333333333334	0.048410400390625	-0.12111900329589843	1.01	0.04213219833374023	-0.09630780029296875	1.0215800170898437	0.022582500457763673	-0.07973570251464844	1.04218994140625	0.009580280303955078	-0.0458031005859375	1.05381005859375	0.06522329711914063	-0.07320980072021484	0.9396060180664062	0.04571839904785156	-0.07435220336914063	0.9500009765625	0.026205299377441406	-0.07377850341796875	0.9650349731445312	0.004678989887237549	-0.06546880340576172	0.9990369873046875	0.0676364974975586	-0.044106601715087894	0.929541015625	0.04567679977416992	-0.0456619987487793	0.9372620239257813	0.019664100646972656	-0.04656079864501953	0.95325	-0.002838759899139404	-0.04244459915161133	0.9910059814453125	0.068033203125	-0.01691670036315918	0.9358270263671875	0.047639598846435545	-0.016754199981689453	0.9432760009765625	0.02278660011291504	-0.017573299407958983	0.9581950073242187	-0.0013329299688339229	-0.019447799682617187	0.9927730102539063	0.05456570053100586	0.0060577201843261715	0.9696270141601563	0.036508098602294925	0.00931785011291504	0.9690390014648438	0.018344600677490233	0.009080089569091798	0.9749819946289062	0.002368789911270141	0.001838940024375915	0.9996160278320313	-0.020419599533081055	-0.01971660041809082	1.0719200439453125
68	2.2666666666666666	0.047484901428222655	-0.12081700134277344	1.009280029296875	0.04159410095214844	-0.09602469635009765	1.0209299926757813	0.022370100021362305	-0.07924790191650391	1.04177001953125	0.009383999824523925	-0.04535919952392578	1.05372998046875	0.06231560134887695	-0.07512760162353516	0.93593798828125	0.04376839828491211	-0.07526280212402343	0.948280029296875	0.025447099685668946	-0.0738115005493164	0.9648720092773437	0.005015840053558349	-0.06484210205078125	0.9991829833984375	0.06402310180664063	-0.04452489852905273	0.923822021484375	0.043162399291992185	-0.04578219985961914	0.934552001953125	0.018645599365234376	-0.04628300094604492	0.9530159912109375	-0.002540869951248169	-0.0418745002746582	0.9911229858398437	0.064377197265625	-0.015064100265502929	0.9299199829101562	0.04496799850463867	-0.015446700096130372	0.9403690185546875	0.021875299453735352	-0.016679800033569336	0.9578319702148438	-0.000729885995388031	-0.01905120086669922	0.9930789794921875	0.0536172981262207	0.008313010215759278	0.966375	0.03551459884643555	0.010710300445556641	0.9679130249023438	0.017805099487304688	0.009958379745483399	0.9750659790039062	0.002748800039291382	0.0021942200660705563	0.9999249877929688	-0.020748600006103516	-0.019456699371337892	1.0718599853515625
69	2.3	0.047254199981689456	-0.11972100067138672	1.00802001953125	0.04162739944458008	-0.09493080139160157	1.020030029296875	0.022615299224853516	-0.07829910278320312	1.0410400390625	0.009628350257873536	-0.04488180160522461	1.053510009765625	0.05879219818115235	-0.0756865005493164	0.932343994140625	0.04122809982299805	-0.07526570129394532	0.9464530029296875	0.024278900146484376	-0.07334130096435547	0.9641929931640625	0.005227900028228759	-0.06416359710693359	0.999260986328125	0.05917430114746094	-0.04417219924926758	0.9179650268554688	0.03966899871826172	-0.04528099822998047	0.9315869750976562	0.01707979965209961	-0.04560810089111328	0.9525070190429688	-0.002409650087356567	-0.04119810104370117	0.9913709716796875	0.059213401794433594	-0.012859199523925781	0.9241519775390625	0.04096609878540039	-0.013821499824523926	0.9374450073242188	0.02001219940185547	-0.015551699638366698	0.957301025390625	-0.000481979995965957	-0.018549299240112303	0.9936680297851562	0.05201169967651367	0.010522600173950195	0.9631589965820313	0.033910999298095705	0.012185099601745606	0.9665280151367187	0.01700469970703125	0.010830699920654297	0.9749299926757813	0.002893160104751587	0.00262797999382019	1.0001799926757813	-0.020968900680541993	-0.01904599952697754	1.072
70	2.3333333333333335	0.0470968017578125	-0.1185009994506836	1.007280029296875	0.041465599060058596	-0.09388919830322266	1.0193499755859374	0.02263089942932129	-0.07751529693603515	1.0404100341796876	0.009127519607543945	-0.044246498107910155	1.053260009765625	0.05565250015258789	-0.07584629821777343	0.9298629760742188	0.03916659927368164	-0.07495140075683594	0.9452529907226562	0.02321820068359375	-0.07273359680175781	0.9639509887695312	0.004954070091247559	-0.06342589950561524	0.9992869873046875	0.05497940063476563	-0.0436427001953125	0.9139829711914063	0.03682789993286133	-0.04463040161132813	0.9296829833984375	0.015678000450134278	-0.04485919952392578	0.95227001953125	-0.002675120115280151	-0.040590400695800784	0.9914949951171875	0.05504159927368164	-0.010490400314331055	0.9203920288085937	0.03801259994506836	-0.011969900131225586	0.935905029296875	0.018479299545288087	-0.014240599632263184	0.956906005859375	-0.000876667022705078	-0.017893199920654298	0.9937160034179687	0.05022480010986328	0.012364199638366699	0.96106298828125	0.03228770065307617	0.013544899940490723	0.965625	0.015822799682617187	0.011738300323486328	0.974968017578125	0.002574350118637085	0.00316441011428833	1.0003400268554687	-0.02147439956665039	-0.01871969985961914	1.072
71	2.3666666666666667	0.04622840118408203	-0.11833100128173828	1.0072999877929687	0.040651798248291016	-0.09366590118408204	1.0194199829101562	0.021982999801635743	-0.0771488037109375	1.0404599609375	0.008820300102233886	-0.04382839965820313	1.05331005859375	0.05337689971923828	-0.07638729858398438	0.9283159790039063	0.037490699768066404	-0.0749844970703125	0.944469970703125	0.022385000228881836	-0.0722959976196289	0.963801025390625	0.0051378002166748045	-0.06277349853515625	0.9994730224609375	0.05269070053100586	-0.04295589828491211	0.911822021484375	0.035321701049804685	-0.0438578987121582	0.9288319702148438	0.015281800270080567	-0.044015201568603515	0.9524420166015625	-0.002564939975738525	-0.039839298248291015	0.9915859985351563	0.05253889846801758	-0.008679309844970702	0.9183579711914063	0.036432498931884764	-0.010498499870300293	0.9349970092773437	0.018029600143432616	-0.013180000305175781	0.95706201171875	-0.000615597009658813	-0.017232500076293945	0.9939210205078125	0.049493400573730466	0.013925399780273438	0.9597410278320313	0.03178520011901855	0.01468470001220703	0.9653709716796876	0.01564890003204346	0.012553199768066407	0.9752529907226563	0.0025930099487304677	0.003771939992904663	1.000739990234375	-0.02196590042114258	-0.018270200729370117	1.0721700439453126
72	2.4	0.04601440048217773	-0.11753900146484375	1.0069500122070312	0.04056259918212891	-0.09296800231933594	1.0191900024414062	0.021737899780273438	-0.07641380310058593	1.0403800048828125	0.008534919738769532	-0.04327320098876953	1.0533399658203124	0.051305000305175784	-0.0759083023071289	0.9269539794921875	0.036071701049804686	-0.07439340209960937	0.9437479858398438	0.02162540054321289	-0.07160659790039063	0.9636270141601563	0.005022980213165283	-0.0620884017944336	0.9996589965820313	0.04928020095825195	-0.0424739990234375	0.9092689819335937	0.03303219985961914	-0.04333250045776367	0.9277869873046874	0.014250900268554688	-0.04338109970092773	0.9524030151367188	-0.002574140071868896	-0.03924150085449219	0.99177099609375	0.04926169967651367	-0.007561620235443115	0.9162219848632812	0.03419879913330078	-0.009587579727172852	0.9339650268554688	0.017057600021362303	-0.012434100151062012	0.9570159912109375	-0.000509874999523162	-0.016731000900268553	0.9942849731445312	0.04821060180664063	0.015380800247192383	0.9581950073242187	0.03076799964904785	0.0156225004196167	0.9647559814453125	0.014940500259399414	0.01322189998626709	0.9752310180664062	0.002587539911270141	0.004204569816589355	1.000989990234375	-0.022199800491333008	-0.017738000869750976	1.0723499755859376
